<?xml version="1.0" encoding="utf-8"?>
<!-- Generator: Adobe Illustrator 24.0.1, SVG Export Plug-In . SVG Version: 6.00 Build 0)  -->
<svg version="1.1" id="Layer_1" xmlns="http://www.w3.org/2000/svg" xmlns:xlink="http://www.w3.org/1999/xlink" x="0px" y="0px"
	 viewBox="0 0 607.83 593.02" style="enable-background:new 0 0 607.83 593.02;" xml:space="preserve">
<style type="text/css">
	.st0{fill:#FFFFFF;}
	.st1{fill:#F5333F;}
	.st2{fill:#333132;}
</style>
<rect x="119.37" y="120.38" class="st0" width="369.08" height="352.26"/>
<polygon class="st1" points="222.71,259.93 180.51,259.93 180.51,223.75 222.71,223.75 222.71,223.73 222.71,181.52 258.88,181.52 
	258.88,223.73 258.87,223.75 301.08,223.75 301.08,259.92 258.87,259.92 258.88,259.91 258.88,302.11 222.71,302.11 222.71,259.91 
	"/>
<path class="st1" d="M357.04,241.18c0-28.11,22.79-50.89,50.89-50.89c6.26,0,12.25,1.13,17.79,3.2
	c-10.41-8.24-23.56-13.16-37.87-13.16c-33.73,0-61.07,27.35-61.07,61.07c0,33.73,27.34,61.07,61.07,61.07
	c14.78,0,28.34-5.25,38.91-13.99c-5.83,2.32-12.18,3.6-18.82,3.6C379.83,292.07,357.04,269.28,357.04,241.18"/>
<path class="st2" d="M397.3,412.69c6.3,0,12.01-1.11,17.14-3.32c5.12-2.21,9.42-5.44,12.88-9.66l-10.8-9.97
	c-4.92,5.75-11.01,8.62-18.28,8.62c-4.5,0-8.52-0.99-12.05-2.96c-3.53-1.97-6.28-4.73-8.26-8.26c-1.97-3.53-2.96-7.55-2.96-12.05
	c0-4.5,0.99-8.52,2.96-12.05c1.97-3.53,4.73-6.28,8.26-8.26c3.53-1.97,7.55-2.96,12.05-2.96c7.27,0,13.36,2.84,18.28,8.52l10.8-9.97
	c-3.46-4.16-7.74-7.34-12.83-9.56c-5.09-2.21-10.79-3.32-17.09-3.32c-7.48,0-14.22,1.61-20.2,4.83c-5.99,3.22-10.7,7.69-14.13,13.4
	c-3.43,5.71-5.14,12.17-5.14,19.37c0,7.2,1.72,13.66,5.14,19.37c3.43,5.71,8.14,10.18,14.13,13.4
	C383.19,411.08,389.89,412.69,397.3,412.69 M330.09,365.12c0,4.02-1.32,7.13-3.95,9.35c-2.63,2.22-6.48,3.32-11.53,3.32H300.9
	v-25.35h13.71c5.06,0,8.9,1.09,11.53,3.27C328.77,357.9,330.09,361.03,330.09,365.12 M348.48,411.44l-16.31-23.37
	c4.78-2.08,8.47-5.07,11.06-8.99c2.6-3.91,3.89-8.57,3.89-13.97c0-5.4-1.28-10.08-3.84-14.03c-2.56-3.95-6.22-6.99-10.96-9.14
	s-10.34-3.22-16.78-3.22h-31.48v72.72h16.83v-20.26h14.65h0.83l14.02,20.26H348.48z M269.53,352.23v-13.5h-54.95v72.72h16.83v-26.49
	h33.66v-13.5h-33.66v-19.22H269.53z M180.51,411.44h16.83v-72.72h-16.83V411.44z"/>
</svg>
